<?xml version="1.0" encoding="utf-8"?>
<svg version="1.1" baseProfile="tiny" x="0px" y="0px" viewBox="246 172 73 30" xmlns="http://www.w3.org/2000/svg">
  <path fill="#005BA6" d="M 254.4 199.6 C 252.2 199.6 250.3 198.9 248.9 197.5 C 247.5 196.1 246.8 194.2 246.8 192 L 246.8 187.4 C 246.8 185.2 247.5 183.3 248.9 182 C 250.3 180.6 252.2 179.9 254.4 179.9 C 256.2 179.9 258 180.3 259.6 181.1 C 260.3 181.4 260.8 182.2 260.8 183 C 260.8 184.1 259.9 184.9 258.8 184.9 C 258.4 184.9 258.1 184.8 257.8 184.7 C 256.5 184.1 255.4 183.8 254.4 183.8 C 252.2 183.8 251 185 251 187.2 L 251 192.4 C 251 194.6 252.2 195.8 254.4 195.8 C 255.5 195.8 256.7 195.5 257.9 194.9 C 258.2 194.7 258.5 194.7 258.8 194.7 C 259.9 194.7 260.8 195.6 260.8 196.7 C 260.8 197.5 260.3 198.2 259.6 198.6 C 258 199.2 256.2 199.6 254.4 199.6 L 254.4 199.6 Z"/>
  <path fill="#005BA6" d="M 266.1 177.3 C 264.8 177.3 263.7 176.2 263.7 174.9 C 263.7 173.6 264.8 172.5 266.1 172.5 C 267.4 172.5 268.5 173.6 268.5 174.9 C 268.5 176.2 267.4 177.3 266.1 177.3 L 266.1 177.3 Z"/>
  <path d="M 266.1 199.6 C 264.9 199.6 264 198.7 264 197.5 L 264 181.9 C 264 180.7 264.9 179.8 266.1 179.8 C 267.3 179.8 268.2 180.7 268.2 181.9 L 268.2 197.5 C 268.1 198.7 267.2 199.6 266.1 199.6 L 266.1 199.6 Z"/>
  <path d="M 279.4 199.6 C 277.2 199.6 275.3 198.9 273.9 197.5 C 272.5 196.1 271.8 194.2 271.8 192 L 271.8 187.4 C 271.8 185.2 272.5 183.3 273.9 182 C 275.3 180.6 277.2 179.9 279.4 179.9 C 281.2 179.9 283 180.3 284.6 181.1 C 285.3 181.4 285.8 182.2 285.8 183 C 285.8 184.1 284.9 184.9 283.8 184.9 C 283.4 184.9 283.1 184.8 282.8 184.7 C 281.5 184.1 280.4 183.8 279.4 183.8 C 277.2 183.8 276 185 276 187.2 L 276 192.4 C 276 194.6 277.2 195.8 279.4 195.8 C 280.5 195.8 281.7 195.5 282.9 194.9 C 283.2 194.7 283.5 194.7 283.8 194.7 C 284.9 194.7 285.8 195.6 285.8 196.7 C 285.8 197.5 285.3 198.2 284.6 198.6 C 282.9 199.2 281.2 199.6 279.4 199.6 L 279.4 199.6 Z"/>
  <path d="M 296 199.6 C 293.7 199.6 291.7 198.8 290.3 197.4 C 288.9 196 288.1 194 288.1 191.7 L 288.1 187.8 C 288.1 185.5 288.9 183.5 290.3 182.1 C 291.7 180.7 293.7 179.9 296 179.9 C 298.3 179.9 300.3 180.7 301.7 182.1 C 303.1 183.5 303.9 185.5 303.9 187.8 L 303.9 191.7 C 303.9 194 303.1 196 301.7 197.4 C 300.3 198.8 298.3 199.6 296 199.6 L 296 199.6 Z M 296 183.7 C 293.6 183.7 292.2 185.1 292.2 187.5 L 292.2 192.1 C 292.2 194.5 293.6 195.8 296 195.8 C 298.4 195.8 299.8 194.4 299.8 192.1 L 299.8 187.5 C 299.8 185.1 298.3 183.7 296 183.7 L 296 183.7 Z"/>
  <path d="M 309.7 199.6 C 308.5 199.6 307.6 198.7 307.6 197.5 L 307.6 185.5 C 307.6 182.3 310 179.8 313.3 179.8 C 314.2 179.8 315.1 179.9 316.1 180.1 C 317.1 180.3 317.8 181.1 317.8 182.1 C 317.8 183.2 316.9 184.1 315.8 184.1 C 315.6 184.1 315.4 184.1 315.1 184 C 314.5 183.9 313.9 183.7 313.3 183.7 C 312.5 183.7 311.8 184.4 311.8 185.2 L 311.8 197.5 C 311.8 198.7 310.9 199.6 309.7 199.6 L 309.7 199.6 Z"/>
</svg>